<?xml version="1.0" standalone="no"?>
<!DOCTYPE svg PUBLIC "-//W3C//DTD SVG 20010904//EN"
 "http://www.w3.org/TR/2001/REC-SVG-20010904/DTD/svg10.dtd">
<svg version="1.0" xmlns="http://www.w3.org/2000/svg"
 width="800.000000pt" height="800.000000pt" viewBox="0 0 800.000000 800.000000"
 preserveAspectRatio="xMidYMid meet">

<g transform="translate(0.000000,800.000000) scale(0.100000,-0.100000)"
fill="#000000" stroke="none">
<path d="M3741 6812 c-81 -13 -106 -13 -109 -4 -6 18 -40 14 -44 -5 -3 -17
-19 -21 -203 -48 -22 -4 -49 -10 -60 -15 -11 -4 -51 -16 -90 -25 -184 -46
-420 -129 -605 -212 -150 -68 -395 -194 -414 -214 -6 -5 -18 -9 -27 -9 -10 0
-19 -3 -21 -7 -3 -9 -42 -35 -180 -122 -231 -145 -578 -420 -695 -550 -72 -80
-18 -191 91 -191 43 0 49 4 153 101 147 138 417 352 523 416 19 11 41 18 48
16 8 -3 16 4 19 16 3 12 32 36 70 58 36 21 73 43 82 48 164 101 610 315 656
315 7 0 26 6 42 14 82 42 274 99 286 87 16 -16 34 -13 39 7 4 13 23 21 69 31
35 7 82 17 104 22 254 57 636 82 908 59 219 -19 541 -79 667 -125 19 -7 55
-18 80 -25 41 -11 95 -30 145 -51 11 -4 61 -24 110 -44 126 -51 255 -115 255
-126 0 -5 9 -9 21 -9 17 0 135 -62 268 -140 189 -112 559 -393 755 -574 135
-124 138 -126 189 -126 56 0 93 27 107 80 12 46 1 82 -38 124 -35 37 -199 179
-321 279 -53 43 -99 87 -103 98 -4 11 -12 18 -17 14 -8 -4 -192 122 -264 180
-9 8 -21 15 -25 15 -5 0 -34 18 -66 40 -31 22 -61 40 -67 40 -5 0 -12 6 -15
13 -3 8 -10 14 -17 14 -7 0 -38 16 -69 36 -31 20 -110 64 -175 98 -65 33 -125
64 -133 69 -21 12 -103 48 -164 71 -28 11 -55 25 -61 30 -5 5 -18 9 -30 9 -12
0 -25 4 -30 9 -6 5 -62 26 -125 47 -63 20 -119 42 -125 49 -5 6 -26 12 -45 12
-37 0 -111 17 -145 32 -11 6 -33 12 -50 14 -16 3 -68 13 -115 21 -47 9 -116
21 -155 26 -38 5 -101 14 -140 19 -111 17 -620 11 -744 -7z m952 -89 c-7 -2
-21 -2 -30 0 -10 3 -4 5 12 5 17 0 24 -2 18 -5z"/>
<path d="M3965 6259 c-79 -33 -132 -78 -162 -139 -24 -47 -28 -67 -28 -140 0
-89 4 -101 67 -203 16 -24 30 -63 32 -88 2 -24 5 -48 7 -54 6 -25 -25 -67 -73
-98 -134 -87 -210 -173 -259 -290 -11 -28 -13 -28 -86 -25 -41 1 -77 6 -79 10
-8 12 -864 10 -864 -2 0 -6 -27 -10 -61 -10 -87 0 -158 -21 -234 -70 -33 -22
-93 -50 -105 -50 -4 0 -13 -6 -19 -14 -6 -8 -24 -16 -39 -19 -26 -4 -73 -20
-117 -38 -11 -5 -33 -11 -50 -14 -16 -2 -42 -10 -58 -16 -52 -22 -426 5 -500
36 -20 8 -40 16 -44 16 -14 3 -58 23 -63 30 -3 3 -23 14 -45 25 -50 22 -92 53
-99 70 -3 7 1 44 9 81 39 185 0 266 -126 261 -44 -2 -56 -8 -90 -40 -21 -21
-39 -46 -39 -56 0 -11 -7 -33 -16 -51 -13 -26 -15 -57 -13 -156 3 -82 8 -128
17 -137 6 -6 12 -20 12 -29 0 -18 84 -99 125 -121 213 -115 313 -158 363 -158
17 0 32 -4 32 -9 0 -6 -23 -41 -51 -78 -28 -37 -61 -81 -72 -97 -12 -16 -35
-43 -50 -60 -80 -89 -135 -155 -162 -193 -11 -15 -32 -40 -47 -55 -16 -14 -28
-30 -28 -35 0 -5 -8 -15 -17 -24 -10 -8 -27 -28 -38 -44 -29 -41 -129 -157
-150 -175 -10 -8 -28 -31 -40 -50 -12 -19 -49 -65 -81 -102 -32 -37 -68 -79
-79 -94 -11 -14 -32 -40 -46 -58 -27 -31 -51 -70 -89 -138 -32 -58 -25 -172
22 -353 13 -54 54 -136 105 -215 42 -65 189 -222 253 -270 19 -14 45 -37 59
-52 13 -16 30 -28 38 -28 7 0 13 -4 13 -8 0 -9 43 -32 170 -90 89 -41 195 -71
305 -87 22 -3 69 -10 105 -15 86 -13 244 -12 311 0 30 6 77 13 104 16 94 9
232 46 271 71 12 8 26 13 30 11 5 -1 33 10 62 25 30 15 60 27 68 27 8 0 14 5
14 10 0 6 4 10 9 10 13 0 157 98 200 135 56 50 152 148 169 175 9 14 35 55 59
91 24 37 43 71 43 77 0 6 6 23 14 39 28 57 37 79 40 108 2 17 9 43 15 58 6 16
11 78 11 139 0 101 -2 115 -27 162 -16 28 -32 56 -38 62 -5 6 -17 22 -25 34
-24 36 -96 122 -152 181 -16 16 -28 32 -28 36 0 5 -19 29 -43 54 -23 26 -60
68 -82 95 -22 27 -42 51 -46 54 -3 3 -8 10 -10 16 -2 6 -23 33 -46 60 -22 27
-79 96 -125 154 -148 187 -222 275 -235 283 -7 4 -13 14 -13 22 0 8 -6 18 -13
22 -7 4 -27 28 -45 52 l-32 45 38 14 c20 7 53 17 72 21 20 4 58 18 85 31 105
50 221 103 250 115 17 7 41 18 55 23 62 26 151 31 598 33 522 1 511 3 535 -62
6 -16 15 -29 19 -29 4 0 8 -5 8 -11 0 -5 24 -43 54 -82 29 -40 59 -90 66 -112
10 -30 11 -144 6 -534 -21 -1670 -21 -1799 9 -2028 6 -47 19 -67 58 -88 32
-17 39 -17 88 -4 83 22 85 30 105 364 16 284 16 719 -2 1803 -4 239 -3 377 3
383 6 6 68 10 139 10 115 1 129 -1 135 -18 12 -31 11 -1183 -1 -1183 -6 0 -10
-65 -10 -185 0 -114 4 -185 10 -185 6 0 11 -162 13 -442 1 -244 6 -456 10
-473 11 -44 60 -85 101 -85 55 0 116 39 123 79 23 128 24 273 13 1006 -10 624
-10 859 0 1175 7 217 13 402 12 410 0 8 13 33 29 55 16 22 43 61 60 87 51 76
111 107 274 141 137 29 690 13 836 -24 20 -5 54 -9 75 -9 22 0 52 -7 68 -15
15 -8 35 -15 44 -15 9 0 67 -25 128 -55 62 -30 115 -55 118 -55 4 0 26 -9 50
-21 39 -18 63 -26 89 -28 17 -2 5 -40 -20 -63 -41 -38 -73 -75 -73 -83 0 -7
-13 -22 -62 -76 -10 -10 -18 -23 -18 -29 0 -5 -4 -10 -9 -10 -4 0 -20 -17 -34
-37 -14 -21 -41 -56 -61 -77 -20 -22 -44 -50 -53 -64 -36 -48 -75 -97 -91
-113 -10 -9 -28 -31 -42 -49 -14 -19 -46 -57 -72 -84 -25 -28 -61 -69 -78 -91
-17 -22 -35 -42 -39 -45 -5 -3 -31 -32 -58 -65 -27 -33 -64 -76 -82 -95 -18
-19 -40 -48 -48 -65 -9 -16 -28 -42 -42 -58 -14 -15 -26 -30 -26 -35 -1 -4
-13 -30 -28 -59 -32 -62 -36 -144 -12 -236 8 -32 15 -68 15 -79 0 -12 6 -38
12 -57 21 -60 119 -245 134 -254 8 -4 14 -12 14 -17 0 -6 8 -20 18 -32 21 -28
141 -148 146 -148 3 0 18 -12 34 -27 40 -38 51 -46 92 -69 19 -10 37 -22 40
-25 3 -3 19 -12 35 -21 17 -8 45 -22 63 -31 19 -9 42 -17 52 -17 10 0 20 -4
22 -9 2 -6 15 -12 29 -15 15 -2 35 -9 45 -14 18 -9 77 -28 159 -51 153 -42
424 -54 570 -25 96 19 241 63 273 82 12 8 22 12 22 8 0 -5 47 16 102 45 10 5
22 9 28 9 6 0 52 26 103 57 66 41 120 85 195 161 56 58 102 109 102 114 0 5
20 36 45 70 25 34 45 65 45 70 0 4 11 32 25 62 14 30 25 61 25 70 0 8 5 18 10
21 6 3 10 17 10 29 0 13 7 41 16 61 12 29 15 65 12 149 -3 99 -5 114 -25 136
-13 13 -23 30 -23 37 0 7 -4 13 -10 13 -5 0 -17 14 -25 30 -9 17 -29 43 -45
59 -17 15 -30 32 -30 38 0 5 -18 27 -41 48 -22 22 -57 64 -76 93 -19 28 -39
52 -44 52 -4 0 -14 11 -21 24 -13 23 -56 77 -108 135 -14 16 -32 38 -40 51 -8
13 -24 33 -35 46 -12 12 -32 37 -45 55 -47 61 -82 104 -89 109 -4 3 -18 21
-31 40 -13 19 -37 51 -54 71 -17 20 -53 65 -81 100 -27 35 -69 85 -93 112 -46
52 -47 67 -3 67 15 0 36 7 47 15 10 8 25 15 33 15 7 0 40 13 72 30 33 16 59
27 59 24 0 -3 13 4 29 15 16 12 37 24 47 29 28 11 130 79 157 104 59 56 77
154 53 288 -26 141 -51 219 -70 221 -80 6 -165 -14 -208 -51 -23 -18 -23 -78
-3 -157 23 -89 20 -127 -14 -155 -15 -14 -44 -31 -62 -38 -19 -7 -41 -18 -49
-25 -21 -16 -148 -63 -190 -70 -19 -3 -39 -10 -44 -16 -13 -12 -204 -12 -275
1 -31 5 -90 14 -131 19 -90 11 -202 42 -220 61 -3 3 -25 14 -50 24 -25 10 -82
36 -127 57 -45 22 -95 42 -112 45 -17 4 -31 13 -31 20 0 17 -86 20 -92 3 -3
-9 -9 -9 -26 0 -21 11 -243 10 -855 -3 l-159 -3 -24 38 c-13 21 -24 45 -24 53
0 8 -4 18 -10 21 -5 3 -10 14 -10 25 0 10 -7 20 -15 24 -8 3 -15 12 -15 19 0
8 -15 26 -34 41 -19 14 -40 32 -48 39 -7 7 -34 28 -60 45 -26 18 -53 42 -59
54 -6 12 -12 56 -12 99 0 67 3 84 24 116 41 63 53 104 54 183 0 127 -50 207
-163 262 -62 30 -76 33 -182 35 -98 3 -122 0 -165 -18z m243 -205 c55 -63 36
-151 -41 -187 -43 -21 -60 -21 -97 -2 -47 24 -70 62 -70 114 1 48 14 72 60
104 41 30 107 16 148 -29z m-70 -412 c2 -94 0 -113 -13 -118 -34 -13 -45 14
-45 115 0 99 9 125 40 119 12 -3 16 -25 18 -116z m62 -262 c15 0 79 -47 113
-85 34 -36 77 -137 77 -180 0 -70 -59 -178 -123 -226 -46 -34 -123 -59 -182
-59 -66 0 -139 41 -208 117 -16 17 -29 37 -31 46 -1 8 -7 21 -14 29 -16 20
-11 200 6 206 7 2 12 9 12 15 1 23 105 125 135 133 17 4 35 10 40 15 18 13
109 15 137 2 15 -7 32 -13 38 -13z m2460 -779 c14 -18 38 -47 53 -64 16 -18
41 -48 55 -67 15 -19 30 -37 34 -40 3 -3 20 -23 37 -45 63 -80 76 -97 99 -123
13 -15 50 -61 82 -102 33 -41 74 -92 92 -114 18 -21 38 -46 43 -56 10 -17 62
-81 100 -123 26 -29 65 -78 90 -113 11 -15 27 -35 35 -44 29 -30 59 -77 53
-84 -8 -8 -1658 -8 -1666 0 -8 8 28 76 56 106 12 13 35 42 51 64 16 21 37 46
45 55 29 29 105 121 136 163 17 23 41 53 55 68 14 15 48 55 75 89 28 34 62 75
78 91 15 16 27 32 27 34 0 3 6 11 13 19 51 55 145 166 212 251 17 20 43 53 60
72 33 38 25 42 85 -37z m-4958 15 c55 -57 118 -130 157 -181 17 -22 37 -47 46
-56 8 -9 15 -20 15 -25 0 -5 10 -21 23 -36 12 -15 33 -42 47 -59 14 -18 34
-43 45 -55 11 -12 49 -59 85 -104 99 -125 172 -213 197 -237 13 -12 23 -26 23
-30 0 -5 8 -16 18 -24 21 -20 54 -58 67 -80 5 -10 23 -33 38 -53 16 -19 26
-40 23 -45 -9 -13 -1662 -15 -1670 -2 -5 8 48 83 93 131 9 9 23 26 31 36 39
49 97 121 117 144 11 14 36 44 55 67 18 23 69 86 113 139 44 54 98 120 119
148 22 28 47 58 56 66 9 8 29 33 45 55 16 22 60 74 97 116 38 42 68 80 68 84
0 11 31 45 41 45 5 0 28 -20 51 -44z m393 -366 c3 -5 -1 -10 -9 -10 -9 0 -16
5 -16 10 0 6 4 10 9 10 6 0 13 -4 16 -10z m4950 0 c3 -5 -1 -10 -9 -10 -9 0
-16 5 -16 10 0 6 4 10 9 10 6 0 13 -4 16 -10z m-4647 -857 c116 -3 217 -10
224 -14 10 -7 10 -13 1 -28 -6 -10 -15 -38 -18 -61 -6 -41 -64 -161 -91 -188
-8 -7 -14 -16 -14 -20 0 -11 -111 -124 -154 -157 -21 -17 -46 -37 -55 -45 -9
-9 -41 -29 -71 -44 -30 -16 -62 -34 -70 -40 -36 -28 -181 -82 -260 -96 -25 -5
-67 -14 -95 -20 -60 -12 -298 -6 -338 9 -16 6 -39 11 -52 11 -12 0 -36 7 -51
15 -16 8 -36 15 -44 15 -25 0 -82 23 -132 53 -26 15 -49 27 -52 27 -14 0 -144
90 -177 122 -20 19 -43 38 -52 41 -10 4 -17 13 -17 22 0 8 -4 15 -10 15 -13 0
-136 180 -156 230 -3 8 -10 24 -16 36 -5 11 -8 40 -6 65 l3 44 80 6 c117 8
1376 10 1623 2z m5024 -2 c75 -4 139 -9 143 -12 14 -15 -60 -221 -85 -239 -4
-3 -21 -27 -38 -55 -31 -50 -78 -98 -142 -147 -19 -15 -51 -40 -70 -57 -45
-40 -260 -146 -314 -155 -16 -3 -34 -10 -40 -16 -5 -5 -26 -10 -46 -10 -20 0
-41 -5 -48 -12 -18 -18 -281 -20 -340 -2 -26 7 -58 14 -71 14 -43 0 -195 53
-271 93 -56 31 -111 66 -120 78 -3 3 -23 18 -45 32 -45 28 -139 118 -170 161
-11 16 -25 33 -31 40 -5 6 -13 18 -17 26 -4 8 -18 35 -32 59 -14 24 -25 50
-25 56 0 7 -7 26 -15 41 -18 36 -19 78 -2 92 8 7 69 13 143 15 214 6 1489 4
1636 -2z"/>
<path d="M6313 4135 c-20 -42 -7 -80 33 -95 27 -11 484 -14 522 -4 27 8 54 56
45 81 -19 54 -15 53 -310 53 l-273 0 -17 -35z"/>
<path d="M6352 3932 c-13 -2 -29 -16 -38 -34 -15 -28 -15 -34 0 -64 l15 -33
253 -3 c139 -2 265 1 281 6 49 15 64 78 26 112 -19 17 -40 19 -267 19 -136 0
-257 -1 -270 -3z"/>
<path d="M1356 4148 c-20 -28 -20 -68 -2 -94 13 -18 30 -19 258 -22 134 -2
258 0 275 3 37 7 67 51 56 82 -19 54 -16 53 -304 53 -265 0 -268 0 -283 -22z"/>
<path d="M1384 3928 c-15 -4 -31 -13 -35 -20 -15 -23 -9 -68 11 -88 19 -19 33
-20 281 -20 160 0 268 4 280 10 23 13 27 81 4 103 -8 9 -44 18 -82 21 -87 8
-423 4 -459 -6z"/>
<path d="M6810 2263 c-14 -9 -56 -44 -95 -78 -147 -128 -454 -354 -597 -440
-119 -72 -162 -95 -174 -95 -8 0 -14 -6 -15 -12 0 -14 -328 -178 -454 -228
-135 -53 -149 -58 -190 -71 -22 -6 -53 -17 -70 -24 -16 -7 -57 -20 -90 -30
-33 -9 -68 -21 -77 -26 -10 -5 -28 -9 -42 -9 -13 0 -43 -7 -66 -15 -23 -8 -56
-15 -71 -15 -16 0 -37 -4 -47 -9 -32 -18 -205 -42 -442 -62 -138 -12 -543 -5
-630 10 -30 5 -89 15 -130 21 -217 34 -391 75 -407 96 -8 12 -16 13 -29 6 -18
-10 -78 5 -137 34 -16 8 -36 14 -45 14 -57 0 -529 204 -722 312 -322 180 -580
360 -784 545 -60 55 -74 63 -108 63 -81 0 -132 -55 -120 -130 4 -25 20 -49 60
-88 57 -55 216 -185 289 -237 23 -17 44 -38 46 -47 3 -10 14 -18 25 -18 11 0
56 -24 99 -54 43 -29 128 -83 188 -120 61 -37 117 -71 125 -76 14 -9 38 -22
195 -104 156 -81 577 -256 619 -256 8 0 27 -6 43 -14 15 -8 48 -20 73 -26 46
-13 122 -34 175 -49 54 -16 288 -62 410 -81 68 -10 265 -26 475 -37 100 -5
219 2 465 29 61 6 136 11 167 11 37 -1 58 4 62 12 2 7 31 16 63 19 32 4 69 11
83 16 14 4 59 16 100 25 41 9 95 22 120 30 144 45 219 69 247 81 17 8 36 14
42 14 6 0 19 4 29 10 16 9 29 14 132 55 53 21 367 175 425 208 22 13 69 40
105 61 36 22 74 44 85 50 11 6 38 24 60 39 22 15 76 51 120 79 165 108 423
308 527 408 55 53 58 59 58 104 0 26 -5 56 -10 67 -25 45 -114 64 -160 32z"/>
</g>
</svg>
